<svg xmlns="http://www.w3.org/2000/svg" xmlns:xlink="http://www.w3.org/1999/xlink" width="500" zoomAndPan="magnify" viewBox="0 0 375 374.999991" height="500" preserveAspectRatio="xMidYMid meet" version="1.0"><defs><clipPath id="6901086ff5"><path d="M 10.78125 107 L 171 107 L 171 268 L 10.78125 268 Z M 10.78125 107 " clip-rule="nonzero"/></clipPath></defs><path fill="#56aeff" d="M 42.015625 105.863281 C 42.015625 105.863281 94.601562 0 195.992188 105.863281 C 290.480469 204.519531 363.847656 141.222656 363.847656 141.222656 C 363.847656 141.222656 284.605469 244.183594 172.644531 126.699219 C 95.023438 45.25 42.015625 105.863281 42.015625 105.863281 " fill-opacity="1" fill-rule="nonzero"/><path fill="#145da0" d="M 42.015625 269.136719 C 42.015625 269.136719 94.601562 375 195.992188 269.136719 C 290.480469 170.480469 363.847656 233.777344 363.847656 233.777344 C 363.847656 233.777344 284.605469 130.816406 172.644531 248.300781 C 95.023438 329.75 42.015625 269.136719 42.015625 269.136719 " fill-opacity="1" fill-rule="nonzero"/><g clip-path="url(#6901086ff5)"><path fill="#56aeff" d="M 90.609375 234.4375 C 64.699219 234.4375 43.695312 213.421875 43.695312 187.5 C 43.695312 161.578125 64.699219 140.5625 90.609375 140.5625 C 116.515625 140.5625 137.515625 161.578125 137.515625 187.5 C 137.515625 213.421875 116.515625 234.4375 90.609375 234.4375 Z M 90.609375 107.734375 C 46.574219 107.734375 10.882812 143.449219 10.882812 187.5 C 10.882812 231.550781 46.574219 267.265625 90.609375 267.265625 C 134.636719 267.265625 170.332031 231.550781 170.332031 187.5 C 170.332031 143.449219 134.636719 107.734375 90.609375 107.734375 " fill-opacity="1" fill-rule="nonzero"/></g><path fill="#051d40" d="M 90.609375 140.5625 C 64.699219 140.5625 43.695312 161.578125 43.695312 187.5 C 43.695312 198.496094 47.484375 208.597656 53.816406 216.59375 C 53.289062 215.53125 52.988281 214.339844 52.988281 213.074219 C 52.988281 208.65625 56.566406 205.074219 60.984375 205.074219 C 65.398438 205.074219 68.980469 208.65625 68.980469 213.074219 C 68.980469 217.492188 65.398438 221.070312 60.984375 221.070312 C 59.308594 221.070312 57.757812 220.554688 56.472656 219.675781 C 65.027344 228.757812 77.148438 234.4375 90.609375 234.4375 C 116.515625 234.4375 137.515625 213.421875 137.515625 187.5 C 137.515625 161.578125 116.515625 140.5625 90.609375 140.5625 " fill-opacity="1" fill-rule="nonzero"/></svg>